<svg xmlns="http://www.w3.org/2000/svg" height="600" width="600" version="1.1" viewBox="0 0 600 600">
	<g transform="rotate(90 300 300)">
		<g transform="translate(0 -452.36)">
			<g transform="matrix(1.1719 0 0 1.1901 .0000012857 443.32)">
				<path d="m0 256v-256h256 256v256 256h-256-256v-256z" fill="#96642c"/>
				<path fill="#8c5829" d="m6.8143 501.4c1.6784-123.55 12.837-247.16 3.7917-370.67-1.6764-43.565-3.3106-86.946-3.7207-130.54 11.824 34.893 4.1237 72.066 8.0547 108.01.60468 95.044 8.9642 190.32-.78216 285.16-2.341 36.731-3.8412 73.527-3.8271 110.34-2.6654 8.9807-5.2046 1.9548-3.5165-2.2947zm35.125-25.15c-3.179-125.7-9.012-251.66.349-377.23.092-33.006-1.399-66.074 1.236-99.02.40029 115.88 3.2765 218.66-2.8224 328.56 6.6409 65.97.29866 101.84 8.3481 155.6 1.1935 22.219-12.517 19.49-7.0943-.57906l.05501-3.6684zm10.498 32.5c-4.728-177.23-3.952-333.12-.185-496.2 14.787-3.9378 1.0795 33.058 5.2627 44.161-12.609 156.39 5.7067 302.75 1.7644 447.87-.93758 2.6058-3.7226 5.5428-6.842 4.1718zm12.043-6.7502c4.606-39.39 2.294-79.04-2.14-118.29-6.205-89.43-6.656-179.17-1.85-268.67 1.466-34.208-.025-69.561 5.559-102.96 5.268 18.734-.984 41.842-.843 62.327-1.55 24.817-2.751 49.713-1.544 74.573 5.35-47.15 1.795-94.968 9.52-141.9-1.506 67.218-8.65 134.23-8.433 201.53-1.3387 73.723 4.0988 147.37 12.6 220.53 1.2796 21.885.49109 60.196-2.4882 71.842-1.965-35.12 3.498-70.53-3.531-105.35-13.278-364.96-12.07-165.81.341 62.74-.43019 10.898 2.7794 45.058-7.1908 43.625zm-5.876-243.73c-3.0922 1.8163 3.2473 2.117 0 0zm33.89 251.19c4.425-77.77 2.776-155.73 6.418-233.54-22.893-60.04-14.117-125.35-10.715-187.84 8.721-22.85-8.336-74.557 12.203-79.139 4.531 40.003-7.3484 81.614 7.4198 120.54 11.974 25.458 13.775 53.397 12.792 81.153-4.8741 56.428 3.6921 127.48 11.28 190.78 3.1459 28.045 2.5397 56.222 5.1625 84.269 1.124 13.766-11.902 25.17-9.0542 4.0864-1.9295-29.52 2.8974-59.823-3.0796-88.867-20.623-2.2293-10.912 36.585-16.33 51.892-3.7655 18.858-.7261 44.373-12.081 58.666l-2.2887-.70552-1.7243-1.2879zm12.916-6.96c6.58-17.962.54699-66.886 16.939-66.208 3.2999 18.631 4.5318 53.828-.78751 62.681-1.3409-11.773 8.7762-49.667-7.2466-43.942-2.1392 14.22.63409 32.618-8.9046 47.469zm32.202 2.75c6.9793-76.491-4.4534-152.84-12.463-228.75-3.411-43.114-3.244-86.448-.95965-129.62-1.275-16.683-33.837-41.094-3.3051-41.474 9.5105-23.074-1.6144-48.772 1.1859-72.994 7.7925-38.624-8.461 33.789 9.9914 23.083.96897-11.832 6.4405-55.829 3.7019-22.398-11.982 108.2-17.345 218.41 2.5089 326.03 3.6582 39.01 3.6692 78.232 6.142 117.32-7.8233 7.4463 1.5081 22.79-6.8021 28.809zm5.6312 1.25c7.9157-25.138.16479-52.147 10.028-76.391 3.094-13.963-8.7217-54.714-1.6937-54.075 6.2425 42.613 4.2618 86.333-4.5438 128.25-.46325 1.9599-2.2665 1.792-3.7907 2.2123zm10.096 2.75c7.6755-26.102 4.4562-53.859 11.365-79.603-4.8938-88.305-24.949-176.65-23.29-259.32 3.2151-29.474-8.6239-60.189 4.2509-88.622 2.9457-22.438-4.532-50.67 5.37-68.464 15.181-25.055 3.8996 23.093 3.2487 32.228-8.4183 70.816-1.8641 117.84-3.3694 213.6 17.979 65.9 21.922 133.4 18.675 196.44-2.5582 12.532-4.7868 57.899-16.251 53.737zm38.261-6.5c5.8752-82.585 8.265-165.84-1.4217-248.24-2.9019 21.359-18.936 19.28-16.385-1.507-8.5391-44.68-17.351-91.262-4.4357-136.07 6.5386-29.721 16.617-58.917 18.188-89.525-4.202 8.26-14.673 46.27-8.3137 18.053-3.4416-11.568 15.979-52.29 14.283-21.81-2.1155 9.3007-9.4872 45.923-1.9641 39.745 2.6165-19.805-.73165-69.771 32.023-55.181 3.1544 35.664 4.5946 71.495 13.838 106.2-.32125 24.37 2.1102 57.667-12.691 76.003-8.2409-17.686 1.0899-45.603-13.005-58.379-18.686 32.417-4.312 49.207-7.1767 106.3-14.467 95.279 24.029 177.94 6.0477 266.79-3.9249-19.871-1.7575 10.484-6.4627-8.6764-3.1509-27.773 4.6472-55.988-4.6351-83.321-1.9273 29.802 7.5691 61.39-3.2442 90.315-5.7016 7.7385-4.7815 6.9607-4.645-.70374z"/>
			</g>
		</g>
	</g>
</svg>
